PathFileType	4	(X/Y/Z)	D:\TRACE\v60_Jaco2_6-2-23\JustBodyDRS_Motion1_2-v60.trc
DataRate	CameraRate	NumFrames	NumMarkers	Units	OrigDataRate	OrigDataStartFrame	OrigNumFrames
100.00	100.00	      21	9	mm	100.00	870	      6954
Frame#	Time	front left toe			Front right toe			aft left toe			aft right toe			Arm			FL body			FR body			AL Body			AR Body			
		X1	Y1	Z1	X2	Y2	Z2	X3	Y3	Z3	X4	Y4	Z4	X5	Y5	Z5	X6	Y6	Z6	X7	Y7	Z7	X8	Y8	Z8	X9	Y9	Z9	

870	8.690	-151.98964	55.38411	-275.45343	221.77988	32.41647	-381.91147	-123.61566	5.78245	263.75516	224.52612	29.30969	334.28439	-95.07019	1231.52942	-447.07941	-62.45188	601.40948	-478.50198	96.59269	603.31281	-488.98950	-0.03175	546.68188	463.45718	157.56619	542.39368	454.33661	
871	8.700	-151.52992	67.27806	-277.90723	222.79193	32.02467	-382.09348	-123.34319	6.01397	263.79678	224.14668	41.34892	330.52560	-95.23080	1232.01184	-447.01614	-62.45132	601.59369	-480.01904	97.98409	603.44135	-490.59732	0.81059	546.53741	462.30853	157.38199	542.56525	453.15744	
872	8.710	-152.83908	79.83224	-282.66498	223.30655	31.85377	-381.94748	-122.90135	6.06019	263.98846	227.17615	53.50309	326.03152	-94.88805	1232.56421	-447.49503	-61.49943	601.52643	-480.94122	98.32541	603.26202	-491.36359	1.29102	546.23511	461.29608	158.00011	542.61694	453.09570	
873	8.720	-153.83305	92.90797	-288.27765	223.71669	31.70262	-382.32883	-122.08976	5.91080	263.74783	231.82228	66.47196	319.80835	-93.89745	1232.41321	-448.73938	-61.15649	602.08313	-482.18112	99.40110	603.60303	-492.59525	1.42533	545.11957	460.11395	158.32265	541.44788	451.44159	
874	8.730	-156.21640	106.13669	-294.29553	225.03969	31.73352	-382.18591	-121.17915	5.60432	263.52747	235.36795	78.49625	313.70163	-92.26159	1232.11829	-450.06580	-60.40169	601.97980	-482.84656	99.82212	603.61633	-492.89807	1.41200	544.71448	459.51572	159.55695	541.41052	451.45374	
875	8.740	-157.82951	118.68943	-300.55838	225.42783	31.48645	-382.39816	-120.82465	5.52903	263.51025	237.74640	90.32726	306.46411	-90.83244	1231.55945	-450.76331	-59.54685	601.72156	-483.64850	99.91074	603.54675	-493.51367	1.27852	543.80121	457.94498	160.14473	540.53333	450.15347	
876	8.750	-158.93010	130.72913	-306.90131	226.29193	31.17937	-382.54495	-120.43141	5.85304	263.57751	238.82018	101.84479	299.61499	-89.10530	1231.42944	-451.65424	-58.90873	601.47144	-484.41388	101.44778	603.64648	-494.66016	1.31314	544.24548	457.68460	160.31412	540.27576	449.52066	
877	8.760	-159.14388	141.68484	-312.42813	227.32657	30.99625	-382.49945	-119.34762	5.81244	263.33945	238.74393	112.95168	293.40097	-88.43279	1231.91089	-451.73984	-57.58533	601.24945	-484.79257	101.55887	602.95447	-495.03705	1.75181	544.06110	457.34131	158.90515	540.11719	448.74280	
878	8.770	-159.84392	151.88211	-317.69180	228.03673	30.92923	-382.54596	-118.45423	5.54985	263.12128	238.66684	123.30679	287.99393	-87.83001	1232.45520	-452.18033	-57.68966	601.11725	-485.72247	102.32097	602.71973	-496.20575	1.96707	544.14368	456.75330	159.17563	540.30865	448.31412	
879	8.780	-160.31390	158.62459	-321.93140	228.69016	30.65723	-382.67380	-117.98300	5.64186	263.02582	237.72925	129.80975	284.07266	-87.75778	1232.40063	-452.57428	-56.81398	600.72229	-486.15060	103.41540	602.38550	-496.45309	2.07349	544.97955	456.12488	159.10378	540.41266	447.97897	
880	8.790	-161.22998	162.94598	-325.19363	229.34648	30.50825	-382.75772	-117.38634	5.75742	262.89914	237.87367	134.39439	280.46484	-86.45421	1231.48511	-453.80600	-56.09387	600.32953	-486.58548	104.01669	601.87463	-496.73776	2.02549	545.32416	455.99258	159.21150	540.87262	448.58417	
881	8.800	-162.18913	164.84265	-327.92963	231.98639	30.59816	-382.22357	-116.09798	5.57402	262.80826	237.99922	135.56900	277.34189	-85.76784	1230.72644	-454.97714	-55.30585	599.82074	-486.97336	104.45546	601.18146	-496.46036	2.30474	545.26495	455.60898	159.28474	541.16345	448.38019	
882	8.810	-163.13499	163.75603	-330.23026	232.54991	30.42247	-382.38150	-115.49456	5.79665	262.88400	238.78998	133.77478	274.29138	-83.91082	1229.94836	-456.51807	-54.10703	599.75427	-486.97702	105.56339	600.98236	-497.02426	2.32718	545.39276	455.49753	159.35847	541.53229	448.43613	
883	8.820	-164.07623	160.39917	-332.72217	231.76808	29.90118	-382.89804	-115.08624	6.18468	262.77524	240.52499	130.37398	271.42117	-82.36613	1229.55676	-457.58185	-53.93566	599.52673	-487.47440	106.27581	600.71063	-497.28702	2.39043	545.34271	454.83109	159.34024	541.89392	448.46426	
884	8.830	-164.13724	155.44849	-335.27325	233.03041	29.77162	-382.65598	-114.20947	6.32855	262.71426	241.42691	125.76880	268.58621	-80.96642	1229.58789	-458.61752	-53.31193	599.14716	-487.78543	107.24239	600.30005	-497.44644	-0.23086	547.54877	455.64832	160.30798	542.19427	448.45270	
885	8.840	-163.52277	149.29356	-338.19263	233.59039	29.68017	-382.68597	-113.13445	5.93239	262.62164	242.10107	120.59458	266.15302	-80.08100	1229.52332	-459.10538	-52.44443	598.67596	-488.16568	107.53101	599.42993	-497.03149	1.37629	546.49567	455.00034	160.43867	542.07776	447.58914	
886	8.850	-162.46417	141.83443	-341.42816	235.22830	29.59060	-382.57782	-112.59979	5.95719	262.67743	242.26173	114.21814	263.58707	-79.05965	1229.31213	-459.28436	-51.61230	598.31879	-488.48260	108.17751	598.92242	-497.28918	1.08143	547.05042	454.65350	160.61511	542.33466	447.47290	
887	8.860	-162.04176	134.07941	-345.10449	236.42409	29.58152	-382.34094	-112.14349	6.25893	262.69333	241.58011	106.74615	260.56989	-78.60307	1228.97729	-459.39804	-50.41800	597.83368	-488.64188	109.83061	598.70844	-497.76608	1.45033	547.04205	454.37863	160.73569	542.26300	447.52014	
888	8.870	-161.86176	125.53701	-349.14713	236.79340	29.13326	-382.50928	-110.98370	6.03938	262.33682	241.23441	98.13023	257.42014	-78.07944	1228.27393	-459.63919	-49.62140	597.60602	-488.90933	110.61952	598.44861	-497.84439	1.36547	547.02240	454.18951	160.85410	542.13824	447.46490	
889	8.880	-161.83301	116.25533	-353.32501	237.46446	28.79427	-382.72778	-110.12531	5.89612	262.11511	240.55678	87.97588	253.91818	-77.34952	1227.86243	-460.37375	-48.78614	597.41034	-489.18192	110.84421	598.00201	-497.62692	1.01014	546.90796	454.13162	160.70349	542.71594	448.47934	
890	8.890	-161.56323	106.69887	-357.31836	238.55972	28.85564	-382.55527	-109.48824	6.01328	261.90179	240.63464	77.49670	250.56923	-74.92406	1227.82654	-460.59415	-47.80416	596.93695	-489.43423	112.50746	597.77258	-498.10336	1.10171	547.07935	454.00543	160.66029	542.65509	448.40500	
